<svg id="visual" viewBox="0 0 1920 1080" width="1920" height="1080" xmlns="http://www.w3.org/2000/svg" xmlns:xlink="http://www.w3.org/1999/xlink" version="1.1"><g><g transform="translate(1237 912)"><path d="M56.2 -65.9C70.4 -55.1 77.7 -35.1 82.5 -13.7C87.2 7.6 89.3 30.2 81.7 50.6C74 70.9 56.5 89 34.1 100C11.6 110.9 -15.7 114.7 -42.3 108.4C-68.8 102.1 -94.5 85.7 -99.6 63.8C-104.7 41.9 -89.3 14.5 -82.5 -12.9C-75.6 -40.2 -77.5 -67.4 -65.2 -78.5C-52.9 -89.6 -26.5 -84.6 -2.7 -81.4C21 -78.2 42.1 -76.7 56.2 -65.9Z" fill="none" stroke="#FFF5EE" stroke-width="16"></path></g><g transform="translate(286 167)"><path d="M50.8 -59.3C67.3 -46.8 83.1 -32.1 86 -15.2C89 1.8 79.3 20.9 68.1 38.6C57 56.2 44.6 72.3 29.3 75.8C14 79.3 -4.1 70.3 -24.9 64.4C-45.7 58.6 -69 56 -76.4 43.8C-83.8 31.7 -75.1 10 -68 -8.8C-60.8 -27.5 -55.2 -43.3 -44.1 -56.8C-33.1 -70.3 -16.5 -81.4 0.3 -81.8C17.2 -82.2 34.4 -71.8 50.8 -59.3Z" stroke="#FFF5EE" fill="none" stroke-width="16"></path></g><g transform="translate(336 506)"><path d="M55.7 -68.9C67.3 -56.6 68.4 -34.4 68.3 -15.1C68.1 4.3 66.5 20.9 61.1 40C55.7 59.1 46.5 80.6 30.2 89.3C13.9 98 -9.3 93.7 -24.1 81.7C-38.9 69.6 -45.3 49.7 -53.9 32.3C-62.5 14.9 -73.3 0 -74.3 -16.4C-75.3 -32.8 -66.5 -50.7 -52.4 -62.6C-38.4 -74.5 -19.2 -80.3 1.4 -82C22 -83.7 44.1 -81.3 55.7 -68.9Z" stroke="#FFF5EE" fill="none" stroke-width="16"></path></g><g transform="translate(1702 862)"><path d="M43.5 -50.8C58 -39.6 72.8 -27.5 74.8 -13.5C76.9 0.4 66.3 16.3 57.2 33.9C48.1 51.6 40.5 71.1 26.4 79.3C12.2 87.4 -8.6 84.1 -28.2 77.2C-47.8 70.2 -66.2 59.5 -72.4 44.1C-78.6 28.7 -72.5 8.5 -65.5 -8.2C-58.6 -24.9 -50.9 -38.2 -39.8 -50C-28.8 -61.9 -14.4 -72.3 0 -72.4C14.4 -72.4 28.9 -62 43.5 -50.8Z" stroke="#FFF5EE" fill="none" stroke-width="16"></path></g><g transform="translate(1571 405)"><path d="M73.2 -88.4C93.5 -70.2 107.6 -45.8 107.3 -22.7C106.9 0.5 92 22.5 77.6 42.3C63.2 62.2 49.4 79.9 31.3 86.6C13.3 93.4 -8.8 89.2 -25.4 79.2C-42 69.1 -53.1 53 -69 35.1C-84.9 17.2 -105.8 -2.5 -103.4 -18.6C-101 -34.7 -75.4 -47.1 -54.3 -65.1C-33.2 -83.2 -16.6 -107 4.9 -112.8C26.4 -118.7 52.9 -106.6 73.2 -88.4Z" stroke="#FFF5EE" fill="none" stroke-width="16"></path></g><g transform="translate(741 885)"><path d="M48.5 -59.9C57.9 -50 56.9 -29.9 56.5 -12.9C56 4.2 56.1 18.3 52 34.5C48 50.6 39.8 68.8 26.8 73.7C13.7 78.5 -4.3 69.9 -20.4 61.7C-36.5 53.4 -50.7 45.4 -61 32.7C-71.3 20 -77.9 2.6 -74.1 -12.1C-70.3 -26.7 -56.2 -38.5 -42.2 -47.5C-28.1 -56.5 -14.1 -62.8 2.8 -66.1C19.6 -69.4 39.2 -69.8 48.5 -59.9Z" stroke="#FFF5EE" fill="none" stroke-width="16"></path></g><g transform="translate(353 912)"><path d="M46.1 -55.7C57.5 -45.5 62.7 -28.7 63.6 -12.8C64.5 3.1 61 18.2 53.1 29.6C45.2 41.1 33 48.9 19 55.4C5 62 -10.7 67.2 -26.8 65C-42.9 62.9 -59.5 53.4 -69.5 38.8C-79.4 24.3 -82.6 4.6 -76.3 -10.4C-70 -25.4 -54.2 -35.6 -39.9 -45.2C-25.6 -54.9 -12.8 -64 2.3 -66.7C17.4 -69.5 34.8 -65.8 46.1 -55.7Z" stroke="#FFF5EE" fill="none" stroke-width="16"></path></g><g transform="translate(1082 204)"><path d="M55.4 -65.5C68.2 -55.3 72.5 -34.4 69.1 -17.5C65.8 -0.6 54.8 12.4 45.2 23.5C35.7 34.6 27.5 43.8 15.2 53.4C2.8 63 -13.7 73 -28.5 70.8C-43.3 68.7 -56.4 54.4 -62.6 38.6C-68.7 22.8 -67.9 5.5 -64.5 -11C-61.1 -27.5 -55.2 -43.1 -44.1 -53.6C-32.9 -64.1 -16.4 -69.4 2.4 -72.3C21.3 -75.2 42.6 -75.7 55.4 -65.5Z" stroke="#FFF5EE" fill="none" stroke-width="16"></path></g><g transform="translate(1765 174)"><path d="M52.5 -55C71.4 -46.7 92.4 -33.4 100.9 -13.6C109.3 6.1 105.1 32.2 90.6 47.7C76.2 63.2 51.3 68 29.9 70.9C8.5 73.8 -9.5 74.8 -26.8 70C-44 65.3 -60.5 54.8 -72.8 39.2C-85.1 23.6 -93.2 2.9 -91.3 -17.5C-89.4 -37.9 -77.4 -57.9 -60.5 -66.5C-43.6 -75 -21.8 -72.1 -2.5 -69.2C16.8 -66.2 33.6 -63.2 52.5 -55Z" stroke="#FFF5EE" fill="none" stroke-width="16"></path></g><g transform="translate(1237 538)"><path d="M38.5 -40.2C52.8 -34 69.1 -24.5 71.3 -12.5C73.4 -0.5 61.4 14 52 29.9C42.6 45.7 35.9 63 23.7 69.1C11.6 75.2 -6.1 70.1 -23.4 63.9C-40.7 57.8 -57.7 50.5 -67.9 37.1C-78.1 23.8 -81.5 4.4 -76.1 -11.1C-70.6 -26.7 -56.3 -38.4 -42.2 -44.6C-28 -50.9 -14 -51.6 -0.9 -50.5C12.1 -49.4 24.3 -46.4 38.5 -40.2Z" stroke="#FFF5EE" fill="none" stroke-width="16"></path></g><g transform="translate(637 578)"><path d="M55 -64C66.1 -56.3 66.2 -34 67.6 -13.7C69 6.5 71.7 24.7 65.1 38.8C58.4 53 42.5 63 26.4 66.2C10.2 69.3 -6.1 65.6 -26.5 62.6C-46.8 59.6 -71 57.3 -78.8 44.9C-86.7 32.6 -78.1 10.2 -68.8 -6.9C-59.6 -24 -49.7 -35.7 -38.1 -43.3C-26.6 -51 -13.3 -54.5 4.3 -59.6C22 -64.8 43.9 -71.7 55 -64Z" stroke="#FFF5EE" fill="none" stroke-width="16"></path></g><g transform="translate(654 201)"><path d="M43.3 -45.9C58.1 -39.2 73.5 -27.4 76.9 -12.8C80.3 1.7 71.8 19.1 61.3 33.6C50.8 48.1 38.4 59.7 22.8 67.4C7.3 75 -11.4 78.8 -28.9 74.5C-46.4 70.2 -62.8 58 -71.3 41.8C-79.8 25.7 -80.4 5.7 -75.7 -12.1C-71.1 -29.9 -61.2 -45.5 -47.7 -52.4C-34.2 -59.3 -17.1 -57.5 -1.4 -55.8C14.3 -54.1 28.5 -52.5 43.3 -45.9Z" stroke="#FFF5EE" fill="none" stroke-width="16"></path></g><g transform="translate(909 472)"><path d="M43.8 -50.5C56.6 -41.4 66.7 -27.5 68.9 -12.5C71.1 2.4 65.3 18.4 56.7 32.1C48.1 45.9 36.6 57.4 23.8 59.3C11.1 61.2 -2.8 53.6 -18.1 48.6C-33.3 43.5 -49.9 40.9 -59.6 31.1C-69.4 21.2 -72.2 4 -70.5 -13.6C-68.8 -31.2 -62.6 -49.1 -50 -58.2C-37.5 -67.3 -18.8 -67.5 -1.6 -65.6C15.5 -63.6 31 -59.5 43.8 -50.5Z" stroke="#FFF5EE" fill="none" stroke-width="16"></path></g><g transform="translate(1471 695)"><path d="M52 -61C67.7 -48.7 81.1 -32.7 86.5 -13.6C91.9 5.5 89.2 27.7 80.1 49C71.1 70.2 55.7 90.4 35.5 97.9C15.4 105.4 -9.6 100 -30.4 89.7C-51.2 79.4 -68 64.2 -78.4 45.5C-88.8 26.9 -92.8 4.9 -92.6 -19.8C-92.4 -44.5 -87.9 -72 -71.8 -84.2C-55.6 -96.4 -27.8 -93.4 -4.9 -87.6C18.1 -81.8 36.2 -73.3 52 -61Z" stroke="#FFF5EE" fill="none" stroke-width="16"></path></g><g transform="translate(1428 144)"><path d="M50.8 -67C62.2 -51 65.2 -31.5 68.8 -12C72.3 7.5 76.5 27 71 45.1C65.5 63.2 50.3 80 32.9 83.2C15.5 86.4 -4.2 76 -23.8 67.9C-43.4 59.7 -63 53.6 -68.3 41.1C-73.6 28.5 -64.8 9.3 -59.9 -9.2C-55.1 -27.7 -54.1 -45.6 -44.8 -61.9C-35.5 -78.3 -17.7 -93.1 1 -94.3C19.7 -95.5 39.4 -83 50.8 -67Z" stroke="#FFF5EE" fill="none" stroke-width="16"></path></g><g transform="translate(1003 758)"><path d="M53.9 -63.6C75.3 -46.3 101.7 -34.5 105.4 -18C109 -1.5 89.8 19.6 74.1 39C58.4 58.3 46.2 75.9 29.1 83.9C12 91.8 -10.1 90.2 -32.1 84C-54 77.8 -75.8 67 -91.1 48.6C-106.4 30.2 -115.2 4.2 -111.6 -20.3C-108 -44.7 -91.9 -67.6 -71.3 -84.9C-50.6 -102.2 -25.3 -114.1 -4.5 -108.7C16.3 -103.3 32.6 -80.8 53.9 -63.6Z" stroke="#FFF5EE" fill="none" stroke-width="16"></path></g></g></svg>