<svg width="1366" height="57" viewBox="0 0 1366 57" fill="none" xmlns="http://www.w3.org/2000/svg">
<path d="M0 55L13.3 54C26.7 53 53.3 51 80.2 51.8C107 52.7 134 56.3 160.8 56.5C187.7 56.7 214.3 53.3 241 49.7C267.7 46 294.3 42 321.2 38C348 34 375 30 401.8 32.7C428.7 35.3 455.3 44.7 482 50.2C508.7 55.7 535.3 57.3 562.2 52.5C589 47.7 616 36.3 642.8 30.8C669.7 25.3 696.3 25.7 723.2 28.5C750 31.3 777 36.7 803.8 37.7C830.7 38.7 857.3 35.3 884 37.2C910.7 39 937.3 46 964.2 47.8C991 49.7 1018 46.3 1044.8 47.8C1071.7 49.3 1098.3 55.7 1125 54.8C1151.7 54 1178.3 46 1205.2 44.7C1232 43.3 1259 48.7 1285.8 50.3C1312.7 52 1339.3 50 1352.7 49L1366 48V0H1352.7C1339.3 0 1312.7 0 1285.8 0C1259 0 1232 0 1205.2 0C1178.3 0 1151.7 0 1125 0C1098.3 0 1071.7 0 1044.8 0C1018 0 991 0 964.2 0C937.3 0 910.7 0 884 0C857.3 0 830.7 0 803.8 0C777 0 750 0 723.2 0C696.3 0 669.7 0 642.8 0C616 0 589 0 562.2 0C535.3 0 508.7 0 482 0C455.3 0 428.7 0 401.8 0C375 0 348 0 321.2 0C294.3 0 267.7 0 241 0C214.3 0 187.7 0 160.8 0C134 0 107 0 80.2 0C53.3 0 26.7 0 13.3 0H0V55Z" fill="#314A6F"/>
</svg>
