<svg width="1366" height="205" viewBox="0 0 1366 205" fill="none" xmlns="http://www.w3.org/2000/svg">
<path d="M0 0L20.7 4.77314C41.3 9.60746 82.7 19.1537 124 30.903C165.3 42.6522 206.7 56.4821 248.2 58.4403C289.7 60.3985 331.3 50.3627 372.8 45.406C414.3 40.3881 455.7 40.3881 497 41.1836C538.3 42.0403 579.7 43.6313 621 37.9403C662.3 32.2493 703.7 19.1537 745 12.8507C786.3 6.54776 827.7 6.91492 869 15.4209C910.3 23.8657 951.7 40.3881 993.2 45.406C1034.7 50.3627 1076.3 43.8761 1117.8 42.8358C1159.3 41.7955 1200.7 46.3239 1242 51.709C1283.3 57.094 1324.7 63.4582 1345.3 66.5791L1366 69.7612V205H1345.3C1324.7 205 1283.3 205 1242 205C1200.7 205 1159.3 205 1117.8 205C1076.3 205 1034.7 205 993.2 205C951.7 205 910.3 205 869 205C827.7 205 786.3 205 745 205C703.7 205 662.3 205 621 205C579.7 205 538.3 205 497 205C455.7 205 414.3 205 372.8 205C331.3 205 289.7 205 248.2 205C206.7 205 165.3 205 124 205C82.7 205 41.3 205 20.7 205H0V0Z" fill="#314A6F"/>
</svg>
